<?xml version="1.0" encoding="utf-8"?>
<!-- Generator: Adobe Illustrator 22.0.1, SVG Export Plug-In . SVG Version: 6.00 Build 0)  -->
<svg version="1.1" baseProfile="tiny" id="Layer_1" xmlns="http://www.w3.org/2000/svg" xmlns:xlink="http://www.w3.org/1999/xlink"
	 x="0px" y="0px" viewBox="0 0 612 792" xml:space="preserve">
<path fill="#FEFEFE" d="M306,445c-58.2,0-116.3,0-174.5,0c-1.6,0-2.1-0.2-2.1-2c0.1-30.8,0.1-61.6,0-92.5c0-1.6,0.1-2.1,2-2.1
	c116.6,0.1,233.1,0.1,349.7,0c1.5,0,2,0.2,2,1.9c-0.1,30.9-0.1,61.8,0,92.7c0,1.8-0.5,2-2.1,2C422.6,445,364.3,445,306,445z"/>
<path d="M343.9,409.9c0,8.4,0,16.3,0,24.2c0,3.8-1.4,4.8-5.1,3.9c-0.6-0.1-0.9-0.4-0.9-1c0-0.6,0-1.2,0-1.7c0-20.2,0-40.3,0-60.5
	c0-0.9-0.5-2.1,0.5-2.5c1.4-0.5,3-0.4,4.4,0c0.6,0.1,0.4,1,0.4,1.6c0,2.1,0,4.3,0,6.9c1.4-1.5,2.4-2.7,3.5-3.7
	c8.8-8.3,22.4-7.3,29.8,2.2c7.4,9.4,7.8,22.5,0.9,32.3c-6.9,9.8-20.9,11.2-29.5,2.8C346.7,413.2,345.5,411.7,343.9,409.9z"/>
<path d="M415.7,398c-6,0-12,0-18,0c-1.1,0-1.9,0-1.7,1.6c1.8,12.6,15,20,26.2,12.9c1.7-1.1,3.2-2.4,4.2-4.2c0.5-0.9,1.1-1.2,2.2-1
	c4.1,0.9,4.3,1.4,1.6,4.7c-7.8,9.7-23.6,10.6-33.1,1.8c-10.5-9.7-10.2-28.1,0.8-37.1c7.1-5.9,15.3-7,23.7-3.4
	c8.6,3.7,13,10.8,13.7,19.9c0.5,5.6,0.9,4.7-4.5,4.8C425.9,398,420.8,398,415.7,398z"/>
<path d="M318.7,409.6c-3,3.5-6.1,6.4-10.1,8.3c-4.2,1.9-8.7,2.4-13.2,1.6c-5.6-1-9.3-5.2-10.7-11.8c-0.6-3-0.8-6.1-0.8-9.2
	c0-8,0.1-16-0.1-24c0-2.1,0.7-2.5,2.6-2.4c4.2,0.2,3.6-0.4,3.6,3.6c0,5.7,0,11.5,0,17.2c0,3.2-0.1,6.3,0.2,9.5
	c0.9,11.5,10.2,15.9,19.8,9.5c5.2-3.4,8.4-8,8.1-14.7c-0.3-7.6,0-15.2-0.1-22.7c0-1.9,0.5-2.6,2.4-2.3c0.5,0.1,1,0.1,1.5,0
	c1.8-0.3,2.2,0.6,2.2,2.3c-0.1,11.5,0,23,0,34.5c0,0.7,0,1.5,0,2.2c0,0.9,0.2,1.9,1.2,2.3c0.8,0.3,1.1,0.9,0.9,1.6
	c-0.4,1.4,1.1,3.3-1,4.1c-2,0.7-4.7-0.6-5.8-2.5c-0.7-1.3-0.7-2.7-0.7-4.1C318.7,411.5,318.7,410.6,318.7,409.6z"/>
<path fill="#010101" d="M158.1,390c0-8.8-0.1-17.7,0-26.5c0-2-0.4-2.7-2.6-2.7c-5.8,0.2-11.7-0.1-17.5,0.1c-2.2,0.1-2.6-0.8-2.5-2.7
	c0.1-1.7-0.1-2.9,2.4-2.9c15.5,0.1,31,0.1,46.5,0c2.4,0,2.5,1,2.5,2.8c0,1.8-0.1,2.9-2.5,2.8c-5.8-0.2-11.7,0-17.5-0.1
	c-2.1,0-2.7,0.5-2.6,2.6c0.1,17.5,0.1,35,0,52.5c0,1,0.6,2.6-0.6,2.9c-1.6,0.4-3.5,0.2-5.2,0c-0.8-0.1-0.4-1.3-0.4-2
	C158.1,407.8,158.1,398.9,158.1,390z"/>
<path fill="#010101" d="M190.9,382.1c1.8-1.7,3-3.7,4.7-5.3c3.1-2.8,6.7-4.6,11-4.8c1.3-0.1,1.8,0.3,1.8,1.6
	c0.2,3.6,0.2,3.6-3.4,4.3c-5.3,1.1-9.5,3.8-12.3,8.6c-1,1.8-1.5,3.6-1.5,5.7c0.1,8.2-0.1,16.3,0.1,24.5c0.1,2.5-1.2,2.4-2.9,2.3
	c-1.5-0.1-3.3,0.7-3.2-2.2c0.1-14.2,0.1-28.3,0-42.5c0-2.7,1.5-2.1,3-2.2c1.6-0.1,2.9-0.1,2.7,2.2
	C190.7,376.9,190.9,379.5,190.9,382.1z"/>
<path fill="#010101" d="M450.6,382c2.6-3.3,5.1-6.2,8.6-8.1c2.2-1.2,4.5-1.8,6.9-2c1.2-0.1,1.8,0.1,1.9,1.5c0.2,3.7,0.3,3.7-3.3,4.4
	c-5.2,1-9.3,3.6-12,8.1c-1.1,1.9-1.7,3.9-1.7,6.1c0.1,8.1,0,16.2,0.1,24.2c0,2.1-0.5,2.7-2.6,2.6c-4.1-0.2-3.5,0.4-3.5-3.7
	c0-13.6,0.1-27.1-0.1-40.7c0-2.5,1-2.6,2.9-2.6c1.9,0,3.2,0,2.9,2.6C450.4,377.1,450.6,379.6,450.6,382z"/>
<path fill="#030302" d="M260.7,419.9c0.5-0.2,1-0.4,1.4-0.6c3.2,5,6.4,9.9,9.5,14.9c0.4,0.7,0.9,1.4,1.3,2.1
	c0.6,0.9,1.2,1.9-0.1,2.8c-1.4,0.9-2.1,0-2.8-1c-2.9-4.5-5.9-9-8.8-13.6c-0.6-0.9-1.1-1.9-1.6-2.8c-0.1-0.2-0.2-0.3-0.3-0.6
	c0-0.2,0.1-0.4,0.2-0.6C259.9,420.2,260.3,420.1,260.7,419.9z"/>
<path fill="#FEFEFE" d="M343.9,395.3c0-0.8,0-1.7,0-2.5c0-7.9,2.8-12.1,9.9-15c6-2.4,12.4-0.8,17.3,4.2c8.1,8.3,6.6,23.7-3,29.9
	c-6.5,4.2-14.5,3-20.2-2.9C344,405.2,343.3,400.5,343.9,395.3z"/>
<path fill="#FEFEFE" d="M412.7,392.9c-5,0-10-0.1-15,0c-1.6,0-1.9-0.5-1.7-2c1.2-8.4,8.2-14.7,16.6-14.8c8.3,0,15.7,6.5,16.9,14.9
	c0.2,1.7-0.4,1.9-1.8,1.9C422.7,392.8,417.7,392.9,412.7,392.9z"/>
<polygon fill="#0CB8F4" points="244.2,392.4 228,420 260.5,420 "/>
<polygon fill="#F2AC0F" points="228,420 244.2,392.4 211.7,392.4 "/>
<polygon fill="#E24B17" points="228,364.8 211.7,392.4 244.2,392.4 "/>
<polygon fill="#19E0D5" points="244.2,392.4 260.5,364.8 228,364.8 "/>
<polygon fill="#E0EF1B" points="260.5,420 276.7,392.4 244.2,392.4 "/>
<polygon fill="#14F253" points="260.5,364.8 244.2,392.4 276.7,392.4 "/>
</svg>
